# xmcd
# Track frame offsets:
# 150
# 12099
# 26333
# 43516
# 59605
# 76157
# 88055
# 102314
# 117343
# 125105
# 139805
# 154744
# 170658
# 184513
# 198437
# 218871
# 235352
#
# Disc length: 3370 seconds
# Revision: 0
# Processed by: cddbd v1.4PL0 Copyright (c) Steve Scherf et al.
# Submitted via: VisiTrax 2.9.5.181 - For more info visit www.synapsa.com
#
DISCID=e90d2811
DTITLE=Trickbag - Afternoon Mint
DYEAR=2002
DGENRE=Blues
TTITLE0=Home Brewed Boogie
TTITLE1=Goin` Home
TTITLE2=Ain`t Got The Time
TTITLE3=Sweets For Somebody
TTITLE4=Me N`You
TTITLE5=Rockin` Xanadu
TTITLE6=Back To Me
TTITLE7=Snake Charm
TTITLE8=A.J. Rumble
TTITLE9=Come Back Tomorrow
TTITLE10=Susanna
TTITLE11=Top Of The World
TTITLE12=Afternoon Mint
TTITLE13=Gently As The Moon
TTITLE14=Too Fat For A Suit
TTITLE15=Crowded Pleaser
TTITLE16=Lonely Days
EXTD=
EXTT0=
EXTT1=
EXTT2=
EXTT3=
EXTT4=
EXTT5=
EXTT6=
EXTT7=
EXTT8=
EXTT9=
EXTT10=
EXTT11=
EXTT12=
EXTT13=
EXTT14=
EXTT15=
EXTT16=
PLAYORDER=
